<svg width="500" height="513" viewBox="0 0 500 513" fill="none" xmlns="http://www.w3.org/2000/svg">
<path fill-rule="evenodd" clip-rule="evenodd" d="M65.5 0H381.21C388.15 0 393.82 5.68 393.82 12.63V169.78C369.83 157.65 343.11 151.17 315.66 151.17C292.21 151.17 269.78 155.85 249.34 164.35C228.28 173.064 209.152 185.86 193.06 202C147.93 247.11 131.33 313.81 149.55 374.45H60.85C41.85 374.45 26.32 390 26.32 408.98C26.32 427.98 41.87 443.52 60.85 443.52H189.44L193.04 447.22C201.21 455.39 210.09 462.65 219.55 468.95H62.16C27.97 468.95 0 440.99 0 406.8V65.51C0 29.48 29.47 0 65.5 0ZM319.48 185.1C357.63 185.1 394.07 200.2 421.04 227.16C458.3 264.42 472.16 319.35 457.15 369.78C453.703 381.36 448.801 392.455 442.56 402.8L498.19 463.43C499.42 464.773 500.068 466.548 499.993 468.367C499.918 470.187 499.126 471.903 497.79 473.14L456.94 510.44C454.15 513 449.81 512.8 447.25 510.01L394.04 451.48C371.51 465.21 345.87 472.37 319.48 472.37C281.33 472.37 244.89 457.27 217.92 430.3C204.57 416.949 193.979 401.101 186.75 383.66C164.49 330.04 177.14 267.96 217.94 227.18C231.13 213.96 246.94 203.3 264.55 196.01C281.49 188.97 300.06 185.1 319.48 185.1ZM400.52 247.69C367.81 214.97 318.23 205.14 275.63 222.79C199.19 254.44 181.63 353 238.42 409.76C271.19 442.45 320.66 452.33 363.32 434.67C406.2 416.86 434.08 375.15 434.08 328.73C434.08 313.18 431.01 298.35 425.43 284.9C419.61 270.9 411.1 258.27 400.52 247.69ZM58.17 416.08H164.85L166.75 419C169.09 422.48 171.54 425.87 174.09 429.16H58.17C55.42 429.16 53.15 426.91 53.15 424.15V421.1C53.15 418.35 55.4 416.08 58.17 416.08ZM58.17 390.18H151.14C153.01 394.61 155.09 398.98 157.37 403.26H58.17C55.42 403.26 53.15 401.01 53.15 398.25V395.2C53.15 392.43 55.4 390.18 58.17 390.18ZM77.67 51.13H88.58C94.17 51.13 98.73 54.82 98.73 59.34V316.84C98.73 321.35 94.16 325.04 88.58 325.04H77.67C72.09 325.04 67.53 321.35 67.53 316.84V59.33C67.53 54.82 72.09 51.13 77.67 51.13Z" fill="#F24236"/>
</svg>
